<svg xmlns="http://www.w3.org/2000/svg" xmlns:xlink="http://www.w3.org/1999/xlink">
    <symbol viewBox="0 0 24 25" id="arrowDown">
        <path d="M6 9.5L12 15.5L18 9.5" stroke-linecap="round" stroke-linejoin="round" />
    </symbol>
    <symbol viewBox="0 0 16 15" id="geo">
        <path
            d="M12.6533 6.25C12.6533 10 7.65332 13.75 7.65332 13.75C7.65332 13.75 2.65332 10 2.65332 6.25C2.65332 4.92392 3.1801 3.65215 4.11779 2.71447C5.05547 1.77678 6.32724 1.25 7.65332 1.25C8.9794 1.25 10.2512 1.77678 11.1889 2.71447C12.1265 3.65215 12.6533 4.92392 12.6533 6.25V6.25Z"
            stroke-linecap="round" stroke-linejoin="round" />
        <path
            d="M7.65332 8.125C8.68885 8.125 9.52832 7.28553 9.52832 6.25C9.52832 5.21447 8.68885 4.375 7.65332 4.375C6.61779 4.375 5.77832 5.21447 5.77832 6.25C5.77832 7.28553 6.61779 8.125 7.65332 8.125Z"
            stroke-linecap="round" stroke-linejoin="round" />
    </symbol>
    <symbol viewBox="0 0 16 15" id="phone">
        <path
            d="M13.9037 10.5751V12.4501C13.9044 12.6241 13.8688 12.7964 13.799 12.9559C13.7293 13.1154 13.627 13.2586 13.4988 13.3762C13.3705 13.4939 13.2191 13.5835 13.0542 13.6393C12.8893 13.695 12.7146 13.7157 12.5412 13.7001C10.618 13.4911 8.77058 12.8339 7.14746 11.7813C5.63735 10.8217 4.35704 9.54142 3.39746 8.03131C2.34119 6.40081 1.68386 4.54443 1.47871 2.61256C1.46309 2.43973 1.48363 2.26554 1.53902 2.10108C1.59441 1.93662 1.68344 1.78549 1.80043 1.65732C1.91743 1.52916 2.05983 1.42675 2.21858 1.35664C2.37732 1.28652 2.54892 1.25022 2.72246 1.25006H4.59746C4.90077 1.24708 5.19483 1.35448 5.42481 1.55227C5.65479 1.75005 5.805 2.02471 5.84746 2.32506C5.92659 2.9251 6.07336 3.51427 6.28496 4.08131C6.36905 4.30501 6.38724 4.54813 6.3374 4.78186C6.28755 5.01559 6.17175 5.23013 6.00371 5.40006L5.20996 6.19381C6.09968 7.75853 7.39524 9.05409 8.95996 9.94381L9.75371 9.15006C9.92364 8.98202 10.1382 8.86622 10.3719 8.81637C10.6056 8.76652 10.8488 8.78472 11.0725 8.86881C11.6395 9.0804 12.2287 9.22717 12.8287 9.30631C13.1323 9.34914 13.4096 9.50206 13.6078 9.736C13.806 9.96993 13.9113 10.2685 13.9037 10.5751Z"
            stroke-linecap="round" stroke-linejoin="round" />
    </symbol>
    <symbol viewBox="0 0 25 24" id="smile">
        <path
            d="M12.1533 22C17.6762 22 22.1533 17.5228 22.1533 12C22.1533 6.47715 17.6762 2 12.1533 2C6.63047 2 2.15332 6.47715 2.15332 12C2.15332 17.5228 6.63047 22 12.1533 22Z"
            stroke-linecap="round" stroke-linejoin="round" />
        <path d="M8.15332 14C8.15332 14 9.65332 16 12.1533 16C14.6533 16 16.1533 14 16.1533 14" stroke-linecap="round"
            stroke-linejoin="round" />
        <path d="M9.15332 9H9.16332" stroke-width="2" stroke-linecap="round" stroke-linejoin="round" />
        <path d="M15.1533 9H15.1633" stroke-width="2" stroke-linecap="round" stroke-linejoin="round" />
    </symbol>
    <symbol viewBox="0 0 24 24" id="question">
        <path
            d="M12 22C17.5228 22 22 17.5228 22 12C22 6.47715 17.5228 2 12 2C6.47715 2 2 6.47715 2 12C2 17.5228 6.47715 22 12 22Z"
            stroke="#006DB8" stroke-linecap="round" stroke-linejoin="round" />
        <path
            d="M9.08984 8.99999C9.32495 8.33166 9.789 7.7681 10.3998 7.40912C11.0106 7.05015 11.7287 6.91893 12.427 7.0387C13.1253 7.15848 13.7587 7.52151 14.2149 8.06352C14.6712 8.60552 14.9209 9.29151 14.9198 9.99999C14.9198 12 11.9198 13 11.9198 13"
            stroke="#006DB8" stroke-linecap="round" stroke-linejoin="round" />
        <path d="M12 17H12.01" stroke="#006DB8" stroke-linecap="round" stroke-linejoin="round" />
    </symbol>
    <symbol viewBox="0 0 34 39" id="play">
        <path
            d="M33 17.7679C34.3333 18.5377 34.3333 20.4622 33 21.232L3.75 38.1195C2.41666 38.8893 0.75 37.9271 0.75 36.3875L0.750001 2.61248C0.750002 1.07288 2.41667 0.11063 3.75 0.880431L33 17.7679Z" />
    </symbol>
    <symbol viewBox="0 0 24 24" id="arrow2px">
        <path d="M18 9L12 15L6 9" stroke-width="2" stroke-linecap="round" stroke-linejoin="round" />
    </symbol>
</svg>