<svg xmlns="http://www.w3.org/2000/svg" xmlns:xlink="http://www.w3.org/1999/xlink">
    <symbol viewBox="0 0 24 25" id="arrowDown">
        <path d="M6 9.5L12 15.5L18 9.5" stroke-linecap="round" stroke-linejoin="round" />
    </symbol>
    <symbol viewBox="0 0 16 15" id="geo">
        <path
            d="M12.6533 6.25C12.6533 10 7.65332 13.75 7.65332 13.75C7.65332 13.75 2.65332 10 2.65332 6.25C2.65332 4.92392 3.1801 3.65215 4.11779 2.71447C5.05547 1.77678 6.32724 1.25 7.65332 1.25C8.9794 1.25 10.2512 1.77678 11.1889 2.71447C12.1265 3.65215 12.6533 4.92392 12.6533 6.25V6.25Z"
            stroke-linecap="round" stroke-linejoin="round" />
        <path
            d="M7.65332 8.125C8.68885 8.125 9.52832 7.28553 9.52832 6.25C9.52832 5.21447 8.68885 4.375 7.65332 4.375C6.61779 4.375 5.77832 5.21447 5.77832 6.25C5.77832 7.28553 6.61779 8.125 7.65332 8.125Z"
            stroke-linecap="round" stroke-linejoin="round" />
    </symbol>
    <symbol viewBox="0 0 16 15" id="phone">
        <path
            d="M13.9037 10.5751V12.4501C13.9044 12.6241 13.8688 12.7964 13.799 12.9559C13.7293 13.1154 13.627 13.2586 13.4988 13.3762C13.3705 13.4939 13.2191 13.5835 13.0542 13.6393C12.8893 13.695 12.7146 13.7157 12.5412 13.7001C10.618 13.4911 8.77058 12.8339 7.14746 11.7813C5.63735 10.8217 4.35704 9.54142 3.39746 8.03131C2.34119 6.40081 1.68386 4.54443 1.47871 2.61256C1.46309 2.43973 1.48363 2.26554 1.53902 2.10108C1.59441 1.93662 1.68344 1.78549 1.80043 1.65732C1.91743 1.52916 2.05983 1.42675 2.21858 1.35664C2.37732 1.28652 2.54892 1.25022 2.72246 1.25006H4.59746C4.90077 1.24708 5.19483 1.35448 5.42481 1.55227C5.65479 1.75005 5.805 2.02471 5.84746 2.32506C5.92659 2.9251 6.07336 3.51427 6.28496 4.08131C6.36905 4.30501 6.38724 4.54813 6.3374 4.78186C6.28755 5.01559 6.17175 5.23013 6.00371 5.40006L5.20996 6.19381C6.09968 7.75853 7.39524 9.05409 8.95996 9.94381L9.75371 9.15006C9.92364 8.98202 10.1382 8.86622 10.3719 8.81637C10.6056 8.76652 10.8488 8.78472 11.0725 8.86881C11.6395 9.0804 12.2287 9.22717 12.8287 9.30631C13.1323 9.34914 13.4096 9.50206 13.6078 9.736C13.806 9.96993 13.9113 10.2685 13.9037 10.5751Z"
            stroke-linecap="round" stroke-linejoin="round" />
    </symbol>
    <symbol viewBox="0 0 25 24" id="smile">
        <path
            d="M12.1533 22C17.6762 22 22.1533 17.5228 22.1533 12C22.1533 6.47715 17.6762 2 12.1533 2C6.63047 2 2.15332 6.47715 2.15332 12C2.15332 17.5228 6.63047 22 12.1533 22Z"
            stroke-linecap="round" stroke-linejoin="round" />
        <path d="M8.15332 14C8.15332 14 9.65332 16 12.1533 16C14.6533 16 16.1533 14 16.1533 14" stroke-linecap="round"
            stroke-linejoin="round" />
        <path d="M9.15332 9H9.16332" stroke-width="2" stroke-linecap="round" stroke-linejoin="round" />
        <path d="M15.1533 9H15.1633" stroke-width="2" stroke-linecap="round" stroke-linejoin="round" />
    </symbol>
    <symbol viewBox="0 0 24 24" id="question">
        <path
            d="M12 22C17.5228 22 22 17.5228 22 12C22 6.47715 17.5228 2 12 2C6.47715 2 2 6.47715 2 12C2 17.5228 6.47715 22 12 22Z"
            stroke="#006DB8" stroke-linecap="round" stroke-linejoin="round" />
        <path
            d="M9.08984 8.99999C9.32495 8.33166 9.789 7.7681 10.3998 7.40912C11.0106 7.05015 11.7287 6.91893 12.427 7.0387C13.1253 7.15848 13.7587 7.52151 14.2149 8.06352C14.6712 8.60552 14.9209 9.29151 14.9198 9.99999C14.9198 12 11.9198 13 11.9198 13"
            stroke="#006DB8" stroke-linecap="round" stroke-linejoin="round" />
        <path d="M12 17H12.01" stroke="#006DB8" stroke-linecap="round" stroke-linejoin="round" />
    </symbol>
    <symbol viewBox="0 0 34 39" id="play">
        <path
            d="M33 17.7679C34.3333 18.5377 34.3333 20.4622 33 21.232L3.75 38.1195C2.41666 38.8893 0.75 37.9271 0.75 36.3875L0.750001 2.61248C0.750002 1.07288 2.41667 0.11063 3.75 0.880431L33 17.7679Z" />
    </symbol>
    <symbol viewBox="0 0 24 24" id="arrow2px">
        <path d="M18 9L12 15L6 9" stroke-width="2" stroke-linecap="round" stroke-linejoin="round" />
    </symbol>
    <symbol viewBox="0 0 15 28" id="swiperArrow">
        <path d="M1.32544 1.9043L13.5742 14.1531L1.32544 26.4019" stroke-width="2" stroke-linecap="round"
            stroke-linejoin="round" />
    </symbol>
    <symbol id="youtube" viewBox="0 0 24 24">
        <path
            d="M15.3244 11.0079L10.5525 8.32665C10.2781 8.17248 9.95379 8.17824 9.68484 8.34188C9.41573 8.50569 9.25523 8.79506 9.25523 9.11625V14.4326C9.25523 14.7523 9.41475 15.0412 9.68204 15.2051C9.82162 15.2908 9.97636 15.3338 10.1314 15.3338C10.2735 15.3338 10.4159 15.2977 10.5469 15.2253L15.319 12.5903C15.6023 12.4337 15.7791 12.1313 15.7804 11.8008C15.7815 11.4703 15.6069 11.1666 15.3244 11.0079ZM10.521 13.7639V9.79045L14.0875 11.7944L10.521 13.7639Z" />
        <path
            d="M22.6409 7.56521L22.6399 7.55506C22.6216 7.37653 22.4395 5.78852 21.6878 4.98081C20.8188 4.03078 19.8337 3.91536 19.3599 3.86003C19.3207 3.85546 19.2847 3.85123 19.2526 3.84683L19.2149 3.84277C16.3593 3.62954 12.0468 3.60044 12.0037 3.60027L11.9999 3.6001L11.9961 3.60027C11.9529 3.60044 7.64042 3.62954 4.75917 3.84277L4.7211 3.84683C4.69045 3.85106 4.65666 3.85495 4.61991 3.85935C4.15157 3.91486 3.17698 4.03044 2.30555 5.01482C1.58952 5.8139 1.38254 7.3679 1.36128 7.54254L1.35881 7.56521C1.35239 7.6395 1.19995 9.40808 1.19995 11.1836V12.8433C1.19995 14.6189 1.35239 16.3874 1.35881 16.4619L1.35997 16.4731C1.37826 16.6487 1.56019 18.2076 2.30852 19.0157C3.12557 19.9339 4.15866 20.0554 4.71434 20.1207C4.80218 20.131 4.87782 20.1398 4.9294 20.1491L4.97933 20.1562C6.62809 20.3173 11.7975 20.3967 12.0167 20.3999L12.0233 20.4001L12.0299 20.3999C12.073 20.3998 16.3854 20.3707 19.2409 20.1574L19.2786 20.1534C19.3147 20.1485 19.3553 20.1441 19.3998 20.1393C19.8655 20.0886 20.8348 19.9831 21.6942 19.0121C22.4102 18.2129 22.6174 16.6589 22.6385 16.4844L22.6409 16.4617C22.6474 16.3873 22.8 14.6189 22.8 12.8433V11.1836C22.7998 9.40808 22.6474 7.63967 22.6409 7.56521ZM21.534 12.8433C21.534 14.4867 21.3943 16.1791 21.3811 16.3345C21.3274 16.7624 21.109 17.7456 20.7601 18.135C20.2222 18.7427 19.6697 18.8029 19.2663 18.8468C19.2175 18.852 19.1723 18.8571 19.1315 18.8623C16.3695 19.0674 12.2199 19.0989 12.0287 19.1001C11.8143 19.0969 6.72054 19.0169 5.12204 18.8644C5.04014 18.8507 4.95164 18.8402 4.85837 18.8293C4.38525 18.7737 3.73761 18.6975 3.2396 18.135L3.2279 18.1222C2.88513 17.7554 2.67304 16.836 2.61915 16.3395C2.6091 16.2221 2.46573 14.5097 2.46573 12.8433V11.1836C2.46573 9.5421 2.60515 7.85154 2.61866 7.69298C2.68276 7.18886 2.90524 6.26522 3.2396 5.89191C3.79397 5.26578 4.37849 5.1964 4.7651 5.15054C4.80201 5.14614 4.83645 5.14208 4.86826 5.13785C7.67041 4.93173 11.8499 4.9011 11.9999 4.89992C12.1498 4.90093 16.3278 4.93173 19.1051 5.13785C19.1392 5.14225 19.1765 5.14665 19.2165 5.15138C19.6142 5.19792 20.2152 5.26832 20.7667 5.87245L20.7718 5.87804C21.1146 6.24475 21.3267 7.18023 21.3806 7.68672C21.3901 7.79756 21.534 9.51367 21.534 11.1836V12.8433Z" />
    </symbol>
    <symbol viewBox="0 0 24 24" id="vk">
        <path
            d="M12.1303 18C15.2551 18 14.1409 16.2416 14.3821 15.736C14.3785 15.3584 14.3749 14.9952 14.3893 14.7744C14.5873 14.824 15.0544 15.0344 16.0192 15.868C17.5087 17.204 17.8894 18 19.0927 18H21.3075C22.0095 18 22.3749 17.7416 22.5576 17.5248C22.734 17.3152 22.9068 16.9472 22.7178 16.3744C22.2237 14.9952 19.342 12.6136 19.1629 12.3624C19.1899 12.316 19.2331 12.2544 19.2556 12.2224C19.8243 11.5544 21.9933 8.6632 22.3128 7.5064C22.3137 7.5048 22.3146 7.5024 22.3146 7.5C22.4874 6.972 22.329 6.6296 22.1652 6.436C21.9186 6.1464 21.5262 6 20.9961 6H18.7813C18.0397 6 17.4772 6.332 17.1928 6.9376C16.7167 8.0136 15.3793 10.2264 14.3767 11.0096C14.3461 9.9 14.3668 9.0528 14.383 8.4232C14.4154 7.1952 14.5198 6 13.0861 6H9.60496C8.70677 6 7.84728 6.872 8.77787 7.9072C9.59146 8.8144 9.07036 9.32 9.24586 11.8368C8.56187 11.1848 7.34508 9.424 6.48469 7.1736C6.2435 6.5648 5.8781 6.0008 4.84941 6.0008H2.63454C1.73635 6.0008 1.19995 6.436 1.19995 7.1648C1.19995 8.8016 5.27601 18 12.1303 18ZM4.84941 7.2008C5.04471 7.2008 5.06451 7.2008 5.20941 7.5664C6.0905 9.8728 8.06688 13.2856 9.51046 13.2856C10.5949 13.2856 10.5949 12.2976 10.5949 11.9256L10.594 8.964C10.5346 7.984 10.1333 7.496 9.86956 7.2L13.0267 7.2032C13.0285 7.2168 13.0087 10.4792 13.0357 11.2696C13.0357 12.392 14.0383 13.0352 15.6034 11.6272C17.2549 9.9704 18.397 7.4936 18.4429 7.3928C18.5104 7.2488 18.5689 7.2 18.7813 7.2H21.0051C21.0042 7.2024 21.0042 7.2048 21.0033 7.2072C20.8008 8.0472 18.802 10.724 18.1333 11.5552C18.1225 11.568 18.1126 11.5816 18.1027 11.5952C17.8084 12.0224 17.569 12.4944 18.1432 13.1584C18.1954 13.2144 18.3322 13.3456 18.5302 13.528C19.1458 14.0928 21.2571 16.024 21.4443 16.792C21.3201 16.8096 21.1851 16.7968 19.0927 16.8008C18.6472 16.8008 18.2989 16.2088 16.9696 15.0168C15.7744 13.9832 14.9986 13.5608 14.2921 13.5608C12.9205 13.5608 13.0204 14.5504 13.033 15.7472C13.0375 17.0448 13.0285 16.6344 13.0384 16.716C12.9583 16.744 12.7288 16.8 12.1303 16.8C6.41989 16.8 2.70113 8.7432 2.55804 7.2032C2.60754 7.1992 3.28883 7.2016 4.84941 7.2008Z" />
    </symbol>
    <symbol viewBox="0 0 24 24" id="calendar">
        <path
            d="M19 4H5C3.89543 4 3 4.89543 3 6V20C3 21.1046 3.89543 22 5 22H19C20.1046 22 21 21.1046 21 20V6C21 4.89543 20.1046 4 19 4Z"
            stroke-linecap="round" stroke-linejoin="round" />
        <path d="M16 2V6" stroke-linecap="round" stroke-linejoin="round" />
        <path d="M8 2V6" stroke-linecap="round" stroke-linejoin="round" />
        <path d="M3 10H21" stroke-linecap="round" stroke-linejoin="round" />
        <path d="M8 14H8.01" stroke-width="2" stroke-linecap="round" stroke-linejoin="round" />
        <path d="M12.2959 14H12.3059" stroke-width="2" stroke-linecap="round" stroke-linejoin="round" />
        <path d="M16.2959 14H16.3059" stroke-width="2" stroke-linecap="round" stroke-linejoin="round" />
        <path d="M8.2959 18H8.3059" stroke-width="2" stroke-linecap="round" stroke-linejoin="round" />
        <path d="M12.2959 18H12.3059" stroke-width="2" stroke-linecap="round" stroke-linejoin="round" />
        <path d="M16.2959 18H16.3059" stroke-width="2" stroke-linecap="round" stroke-linejoin="round" />
    </symbol>
    <symbol viewBox="0 0 24 24" id="clock">
        <path
            d="M12.2959 22C17.8187 22 22.2959 17.5228 22.2959 12C22.2959 6.47715 17.8187 2 12.2959 2C6.77305 2 2.2959 6.47715 2.2959 12C2.2959 17.5228 6.77305 22 12.2959 22Z"
            stroke-linecap="round" stroke-linejoin="round" />
        <path d="M12.2959 6V12H16.7959" stroke-linecap="round" stroke-linejoin="round" />
    </symbol>
    <symbol viewBox="0 0 16 16" id="arrowLeft">
        <path d="M10 12.1973L6 8.19727L10 4.19727" stroke-linecap="round" stroke-linejoin="round" />
    </symbol>
    <symbol viewBox="0 0 24 24" id="close">
        <path d="M18 6L6 18" stroke-width="2" stroke-linecap="round" stroke-linejoin="round" />
        <path d="M6 6L18 18" stroke-width="2" stroke-linecap="round" stroke-linejoin="round" />
    </symbol>
    <symbol viewBox="0 0 88 88" id="complete">
        <path
            d="M80.6666 40.6267V44C80.6621 51.9069 78.1018 59.6005 73.3675 65.9334C68.6332 72.2663 61.9786 76.8991 54.3962 79.141C46.8138 81.3829 38.7099 81.1136 31.293 78.3735C23.8761 75.6333 17.5437 70.569 13.2401 63.9359C8.93656 57.3028 6.89249 49.4562 7.41273 41.5665C7.93298 33.6767 10.9897 26.1665 16.1269 20.1559C21.2642 14.1453 28.2068 9.9564 35.9193 8.21387C43.6318 6.47134 51.7009 7.26857 58.9233 10.4867"
            stroke-width="2" stroke-linecap="round" stroke-linejoin="round" />
        <path d="M80.6667 14.6667L44 51.37L33 40.37" stroke-width="2" stroke-linecap="round" stroke-linejoin="round" />
    </symbol>
</svg>