<svg width="16" height="15" viewBox="0 0 16 15" fill="none" xmlns="http://www.w3.org/2000/svg">
<path d="M12.6533 6.25C12.6533 10 7.65332 13.75 7.65332 13.75C7.65332 13.75 2.65332 10 2.65332 6.25C2.65332 4.92392 3.1801 3.65215 4.11779 2.71447C5.05547 1.77678 6.32724 1.25 7.65332 1.25C8.9794 1.25 10.2512 1.77678 11.1889 2.71447C12.1265 3.65215 12.6533 4.92392 12.6533 6.25V6.25Z" stroke="#006DB8" stroke-linecap="round" stroke-linejoin="round"/>
<path d="M7.65332 8.125C8.68885 8.125 9.52832 7.28553 9.52832 6.25C9.52832 5.21447 8.68885 4.375 7.65332 4.375C6.61779 4.375 5.77832 5.21447 5.77832 6.25C5.77832 7.28553 6.61779 8.125 7.65332 8.125Z" stroke="#006DB8" stroke-linecap="round" stroke-linejoin="round"/>
</svg>
