<svg width="80" height="84" viewBox="0 0 80 84" fill="none" xmlns="http://www.w3.org/2000/svg">
<g clip-path="url(#clip0_23_2250)">
<path fill-rule="evenodd" clip-rule="evenodd" d="M0.588535 70.6816C0.986729 70.701 1.32918 70.7322 1.62185 70.7711C2.25634 70.8501 2.89557 70.8872 3.53517 70.882C3.78802 70.882 4.43111 70.8626 5.4684 70.8256C7.02534 70.7691 8.42699 70.7419 9.68329 70.7419L11.5747 70.7205C12.2048 70.7362 12.8336 70.7856 13.4582 70.8684C13.5892 71.0149 13.657 71.2054 13.6473 71.3998V73.4259L13.6692 73.8288C13.6692 73.8697 13.6692 73.93 13.6692 74.0079L13.2412 74.0273C13.1874 74.0273 13.0699 74.0273 12.8868 74.0079C12.8231 73.8775 12.7374 73.6809 12.6299 73.424L12.2058 72.7233C12.0198 72.3928 11.7917 72.0868 11.5269 71.8124C11.3072 71.76 11.0821 71.7325 10.856 71.7306C10.7863 71.7306 10.5752 71.7073 10.2189 71.6839C9.56781 71.6333 8.86898 71.61 8.12038 71.61C7.27023 71.61 6.50769 71.6236 5.83673 71.6508C5.83673 71.8143 5.83673 72.4566 5.83673 73.5797V75.2263V76.4583C5.98526 76.4777 6.13487 76.4881 6.2847 76.4894C7.52707 76.4894 8.41239 76.4667 8.94066 76.4213C9.46826 76.3746 9.79279 76.3123 9.91822 76.2267C10.0664 76.1161 10.1818 75.969 10.2527 75.8004C10.4011 75.3266 10.5228 74.8451 10.6171 74.3582L10.7524 74.3485H11.3677C11.3955 74.9324 11.4095 75.3761 11.4095 75.6798C11.4095 76.3688 11.4095 76.8125 11.3995 77.0072C11.3896 77.2018 11.3876 77.3595 11.3876 77.4704C11.3876 77.6475 11.3995 77.9297 11.4214 78.321C11.4433 78.7122 11.4533 79.0022 11.4533 79.191V79.409H10.7027C10.6748 79.3058 10.625 79.0898 10.5454 78.7647C10.4126 78.1562 10.2879 77.776 10.1711 77.6242C10.0648 77.4948 9.91898 77.4021 9.75496 77.3595C9.6156 77.3147 9.09795 77.2913 8.20798 77.2913C7.15675 77.2913 6.36832 77.3186 5.83673 77.3731V81.7757C5.82657 81.8793 5.84822 81.9836 5.89893 82.0751C5.94965 82.1666 6.02711 82.2413 6.12144 82.2896C6.40682 82.4193 7.28483 82.4842 8.7555 82.4842C9.58565 82.4997 10.4153 82.4345 11.2323 82.2896C11.7016 82.1898 12.132 81.9608 12.4726 81.6297C13.003 81.1078 13.4077 80.4768 13.6573 79.7827C13.8763 79.7613 14.0555 79.7515 14.1889 79.7515C14.2685 79.7515 14.388 79.7515 14.5353 79.7613C14.5134 79.9267 14.4975 80.0649 14.4815 80.1758L14.4218 80.4717L14.0356 82.3285L13.8504 83.4515C13.3965 83.471 13.0401 83.4827 12.7733 83.4827C12.383 83.4827 11.3411 83.4509 9.64745 83.3873C8.45287 83.3445 7.01804 83.3224 5.34297 83.3211C4.50544 83.3211 3.47677 83.3549 2.25697 83.4223H1.81896L0.554688 83.4613V82.7684C0.817683 82.7169 1.08364 82.6812 1.35108 82.6613C1.86375 82.6274 2.36871 82.5212 2.85028 82.346C2.92766 82.115 2.96337 81.8727 2.9558 81.6297C2.9558 81.5149 2.9558 81.3261 2.94584 81.0575L2.9558 80.7519L2.92793 77.0539L2.93987 75.9406L2.89209 74.3679L2.90403 73.2566L2.80648 72.0362C2.80347 71.9709 2.79616 71.9059 2.78458 71.8416C2.69956 71.7631 2.59032 71.7145 2.47398 71.7034C2.39634 71.6937 2.2928 71.6742 2.1614 71.6469C1.78418 71.5711 1.40136 71.5249 1.01659 71.5088C0.883198 71.5088 0.733876 71.4893 0.55867 71.4698L0.602472 70.6913L0.588535 70.6816ZM15.8095 82.6126C16.1094 82.5331 16.4148 82.4752 16.7234 82.4394C17.1216 82.3849 17.3525 82.3577 17.4202 82.3577C17.6091 82.3725 17.7981 82.3303 17.9617 82.237C18 82.1105 18.0214 81.9796 18.0255 81.8477L18.0055 80.5846L18.0693 79.3039V78.4669V77.4938L18.0493 76.4661L18.0912 74.2687V73.2741V73.1359C18.0414 72.443 17.9956 72.0635 17.9498 71.9973C17.904 71.9311 17.7069 71.8396 17.3525 71.7345L16.9543 71.5866C16.8013 71.5275 16.6435 71.4813 16.4825 71.4484C16.2992 71.4156 16.1254 71.3446 15.9728 71.2402C15.9588 71.0689 15.9509 70.9385 15.9509 70.8509C15.9509 70.8003 15.9509 70.7185 15.9608 70.6154C16.0215 70.5818 16.0902 70.5643 16.1599 70.5648C16.3232 70.5648 16.9304 70.594 17.9757 70.6543L19.4709 70.6446L20.5819 70.666C21.0617 70.666 21.6789 70.6387 22.4335 70.5881C22.6545 70.5706 22.7819 70.5648 22.8177 70.5648C22.8582 70.5608 22.899 70.5658 22.9372 70.5793C22.9755 70.5927 23.0101 70.6144 23.0387 70.6426C23.1057 70.7578 23.1349 70.8903 23.1223 71.0222C23.1265 71.0826 23.1185 71.1433 23.0987 71.2008C23.0789 71.2582 23.0477 71.3113 23.0069 71.3569C22.864 71.4318 22.705 71.4725 22.543 71.4757L21.2449 71.7598L21.0657 71.8377C21.0418 71.8765 21.0205 71.9168 21.002 71.9584L20.992 72.2347L20.9582 72.8556V73.1417C20.9582 73.1748 20.9582 73.3539 20.9442 73.6828C20.9442 73.7704 20.9442 73.8541 20.9442 73.9417C20.9442 74.0293 20.9442 74.2239 20.9442 74.473C20.9562 74.8623 20.9582 75.2126 20.9582 75.5085C20.9582 75.851 20.9482 76.2403 20.9263 76.6763C20.9263 76.8417 20.9263 77.0558 20.9263 77.3186L20.8825 81.9898C20.8719 82.0607 20.8788 82.1331 20.9027 82.2008C20.9266 82.2686 20.9668 82.3297 21.0199 82.3791L22.0154 82.4161H22.6326H23.2916C24.4118 82.4161 25.2912 82.2941 25.9296 82.0502C26.4114 81.8691 26.726 81.6842 26.8674 81.4993C27.0919 81.3144 27.2872 81.098 27.4467 80.857C27.6556 80.4945 27.8251 80.1116 27.9524 79.7145H28.2889C28.4774 79.7161 28.6657 79.7298 28.8524 79.7554V80.0299C28.8524 80.5009 28.7893 81.3274 28.6632 82.5095C28.65 82.8023 28.6005 83.0925 28.5159 83.3737C28.4173 83.3932 28.3175 83.4068 28.2172 83.4145H27.831H27.2894C27.2257 83.4145 26.8076 83.3873 26.0391 83.3367L24.0382 83.2705C22.8436 83.2335 21.6729 83.2121 20.5241 83.2121L18.4037 83.2705C17.5874 83.29 16.8229 83.3244 16.1101 83.3737H15.9529C15.9091 83.3737 15.8414 83.3737 15.7538 83.3639C15.7397 83.3033 15.7324 83.2413 15.7319 83.179C15.7215 82.9779 15.7464 82.7764 15.8055 82.5835L15.8095 82.6126ZM29.37 83.4029L29.4019 82.7372C30.2739 82.6341 30.8234 82.4647 31.0623 82.237C31.2156 82.0832 31.3331 81.6726 31.4147 81.0147L31.5541 77.5113L31.7154 73.9456C31.7293 73.7315 31.7353 73.5991 31.7353 73.5563C31.7353 72.6415 31.6795 72.1121 31.5641 71.97C31.4486 71.828 31.0046 71.6878 30.2261 71.5496C30.027 71.5107 29.8777 71.4796 29.7662 71.4523C29.7523 71.2849 29.7443 71.1428 29.7443 71.03V70.701C30.0011 70.6816 30.3018 70.6718 30.6482 70.6718L33.6765 70.7711C33.7482 70.7711 33.8457 70.7847 33.9692 70.7925L34.445 70.812C34.582 70.9741 34.7027 71.1488 34.8054 71.3336C35.0615 71.8137 35.4053 72.5157 35.8367 73.4395L35.9462 73.7081L37.5887 77.0383C37.6266 77.1162 37.6843 77.233 37.76 77.3809L38.0944 78.0504L38.4488 78.7569C38.5723 79.008 38.6878 79.2396 38.7873 79.4518C38.8905 79.283 38.9842 79.1089 39.068 78.9302C39.3468 78.3229 39.6215 77.7624 39.8863 77.2602C40.3456 76.3662 40.9701 74.9985 41.7598 73.1573C41.8846 72.8615 42.0917 72.417 42.381 71.8241C42.6697 71.2285 42.831 70.9132 42.8588 70.8801C42.9719 70.8158 43.1031 70.7885 43.2331 70.8022C43.3008 70.8022 43.4083 70.8022 43.5537 70.7925C43.918 70.7711 44.3501 70.7594 44.8578 70.7458C45.5878 70.738 46.1738 70.7179 46.6158 70.6854C47.0558 70.6485 47.3047 70.6309 47.3624 70.6309C47.4457 70.6318 47.5289 70.6383 47.6113 70.6504C47.6113 70.7458 47.6113 70.8159 47.6113 70.8684L47.5934 71.1681C47.5934 71.2285 47.5934 71.3161 47.5814 71.4367C47.0325 71.5031 46.4954 71.6419 45.9847 71.8494C45.7 71.9817 45.5566 72.1413 45.5566 72.3379V72.4839L45.7318 75.4949C45.7517 75.7712 45.8061 77.1402 45.8951 79.6017C45.9176 80.1518 45.9628 80.8512 46.0305 81.6998C46.0428 81.7811 46.0501 81.863 46.0524 81.9451C46.0524 82.0988 46.0962 82.1961 46.1638 82.2409C46.2315 82.2857 46.8667 82.4686 48.0712 82.7937C48.0712 82.9027 48.0831 82.9883 48.0831 83.037C48.0831 83.1771 48.0831 83.3192 48.0712 83.4593C47.8821 83.4593 47.4122 83.4223 46.6556 83.3484C45.8991 83.2744 45.1883 83.2374 44.5253 83.2374C43.5178 83.2374 42.5376 83.2757 41.5846 83.3523L41.2203 83.3795L41.2422 82.7139C41.6069 82.5882 41.9838 82.4995 42.3671 82.4492C42.6956 82.3947 42.9046 82.3071 42.9942 82.1825C43.0838 82.0579 43.1256 81.7095 43.1256 81.1373C43.1256 80.9193 43.1256 80.7305 43.1256 80.567C43.0898 79.878 43.0719 78.9165 43.0639 77.6903L42.8867 74.2161C42.8688 73.7217 42.8429 73.3792 42.815 73.1904L40.2467 78.8231C40.181 78.9535 40.0894 79.1443 39.9679 79.3934C39.8067 79.7165 39.6992 79.9345 39.6454 80.0532C39.1178 81.2697 38.7475 82.1942 38.5444 82.8384C38.4867 83.0019 38.405 83.218 38.2935 83.4807H37.4275L36.8541 81.9704C36.6895 81.5811 36.4061 80.9829 36.0039 80.1758C35.769 79.7126 35.5838 79.3331 35.4504 79.045C35.3907 78.9263 35.3429 78.8387 35.319 78.7784L35.1936 78.5331C35.1887 78.4979 35.1779 78.4637 35.1617 78.4319L33.6128 75.271L32.6671 73.348L32.5755 78.0057L32.4919 81.0303C32.4919 81.5246 32.5894 81.8808 32.7885 82.093C32.9876 82.3051 33.4097 82.4823 34.0627 82.636L34.5625 82.7547V83.4807C34.1643 83.4807 33.7263 83.4437 33.2624 83.3931C32.6516 83.3366 32.0382 83.3119 31.4247 83.3192C31.2654 83.3192 30.5805 83.3458 29.37 83.399V83.4029ZM48.9811 70.6816C49.3793 70.701 49.7237 70.7322 50.0164 70.7711C50.6509 70.8501 51.2901 70.8872 51.9297 70.882C52.1826 70.882 52.8256 70.8626 53.8629 70.8256C55.4199 70.7691 56.8215 70.7419 58.0778 70.7419L59.9692 70.7205C60.5993 70.7362 61.2281 70.7856 61.8527 70.8684C61.9874 71.0134 62.0588 71.204 62.0518 71.3998V73.4259L62.0737 73.8288C62.0737 73.8697 62.0737 73.93 62.0737 74.0079L61.6456 74.0273C61.5919 74.0273 61.4744 74.0273 61.2912 74.0079C61.2275 73.8775 61.1419 73.6809 61.0344 73.424L60.6103 72.7233C60.4243 72.3928 60.1962 72.0868 59.9314 71.8124C59.7117 71.76 59.4866 71.7325 59.2605 71.7306C59.1888 71.7306 58.9797 71.7073 58.6214 71.6839C57.9723 71.6333 57.2735 71.61 56.5249 71.61C55.6747 71.61 54.9102 71.6236 54.2412 71.6508C54.2412 71.8143 54.2412 72.4566 54.2412 73.5797V75.2263V76.4583C54.3897 76.4777 54.5394 76.4881 54.6892 76.4894C55.9316 76.4894 56.8169 76.4667 57.3451 76.4213C57.8727 76.3746 58.1973 76.3123 58.3227 76.2267C58.4709 76.1161 58.5863 75.969 58.6572 75.8004C58.8056 75.3266 58.9273 74.8451 59.0215 74.3582L59.1569 74.3485H59.7721C59.8 74.9324 59.8139 75.3761 59.8139 75.6798C59.8139 76.3688 59.8139 76.8125 59.804 77.0072C59.794 77.2018 59.792 77.3595 59.792 77.4704C59.792 77.6475 59.804 77.9297 59.8239 78.321C59.8438 78.7122 59.8577 79.0022 59.8577 79.191V79.409H59.1071C59.0793 79.3058 59.0295 79.0898 58.9499 78.7647C58.8105 78.1555 58.6871 77.776 58.5756 77.6242C58.4693 77.4948 58.3235 77.4021 58.1595 77.3595C58.0201 77.3147 57.5024 77.2913 56.6125 77.2913C55.5612 77.2913 54.7728 77.3186 54.2412 77.3731V81.7757C54.2311 81.8793 54.2527 81.9836 54.3034 82.0751C54.3541 82.1666 54.4316 82.2413 54.5259 82.2896C54.81 82.4193 55.688 82.4842 57.16 82.4842C57.9895 82.4998 58.8185 82.4346 59.6348 82.2896C60.1049 82.1902 60.536 81.9612 60.8771 81.6297C61.4111 81.1088 61.8193 80.4777 62.0717 79.7827C62.2907 79.7613 62.4699 79.7515 62.6033 79.7515C62.6829 79.7515 62.8024 79.7515 62.9497 79.7613C62.9272 79.926 62.9092 80.0642 62.896 80.1758L62.8362 80.4717L62.45 82.3285L62.2648 83.4515C61.8109 83.471 61.4545 83.4827 61.1877 83.4827C60.7975 83.4827 59.7555 83.4509 58.0619 83.3873C56.8673 83.3445 55.4325 83.3224 53.7574 83.3211C52.9199 83.3211 51.8912 83.3549 50.6714 83.4223H50.2314L48.9691 83.4613V82.7684C49.2321 82.7169 49.4981 82.6812 49.7655 82.6613C50.2782 82.6274 50.7831 82.5212 51.2647 82.346C51.3412 82.1148 51.3769 81.8726 51.3702 81.6297C51.3702 81.5149 51.3702 81.3261 51.3603 81.0575L51.3702 80.7519L51.3424 77.0539L51.3523 75.9406L51.3065 74.3679L51.3185 73.2566L51.2209 72.0362C51.2179 71.9709 51.2106 71.9059 51.199 71.8416C51.114 71.7631 51.0047 71.7145 50.8884 71.7034C50.8108 71.6937 50.7072 71.6742 50.5758 71.6469C50.198 71.571 49.8145 71.5247 49.429 71.5088C49.2976 71.5088 49.1483 71.4893 48.9731 71.4698L49.0149 70.6913L48.9811 70.6816ZM64.2379 82.6107C64.3434 82.5874 64.5624 82.5465 64.8909 82.4959C65.546 82.3927 65.974 82.2506 66.1791 82.0716C66.3322 81.8915 66.4173 81.6654 66.42 81.4312C66.42 81.3534 66.4499 80.3491 66.4857 78.4241L66.4638 77.3419L66.4857 76.0301L66.4638 72.6668V72.2776C66.4679 72.2063 66.457 72.1349 66.4316 72.0679C66.4063 72.0009 66.3671 71.9398 66.3165 71.8883C66.1887 71.825 66.0444 71.8006 65.9023 71.8182C65.6908 71.8211 65.4798 71.84 65.2712 71.8747C64.9918 71.8841 64.7132 71.9101 64.437 71.9525C64.3932 71.9525 64.3295 71.9661 64.2379 71.9798V71.1117C64.8178 70.9548 65.4078 70.8358 66.0039 70.7555C67.556 70.5458 69.1219 70.4495 70.6886 70.4675C72.2376 70.4675 73.3698 70.5492 74.0852 70.7127C75.0414 70.9111 75.9456 71.3 76.7412 71.8552C77.6009 72.4663 78.3041 73.2637 78.7959 74.185C79.2558 75.0871 79.4905 76.0829 79.4808 77.0909C79.4808 78.4183 79.1741 79.5549 78.5609 80.5009C77.9065 81.4836 76.9894 82.2725 75.909 82.782C75.0986 83.1888 74.0036 83.3931 72.6159 83.3931L70.4696 83.3192L69.8425 83.2958L68.9923 83.3133L68.7435 83.2958L67.8615 83.3133H66.7027C66.6589 83.3133 66.3045 83.3328 65.6355 83.3698C65.4106 83.3834 65.1179 83.3892 64.7575 83.397C64.5325 83.397 64.3593 83.397 64.2538 83.397C64.2399 83.253 64.2339 82.9902 64.2339 82.6049L64.2379 82.6107ZM69.3109 71.6353V73.7451L69.3328 75.2049V76.4447L69.3109 77.3809L69.3427 78.9477L69.3109 79.9111C69.3109 80.8123 69.4901 81.4234 69.8425 81.7465C70.3601 82.2078 71.0709 82.4355 71.9768 82.4355C72.4922 82.4571 73.0075 82.3913 73.4999 82.2409C74.1141 82.037 74.6716 81.6965 75.1285 81.2463C75.5754 80.7448 75.8887 80.143 76.0404 79.4946C76.2522 78.7288 76.358 77.9387 76.3549 77.1454C76.3549 75.8219 76.13 74.7358 75.68 73.8969C75.273 73.0991 74.6309 72.4388 73.8363 72.0012C72.434 71.3085 70.8106 71.1772 69.3109 71.6353Z" fill="#006DB8"/>
<path d="M40 6.01219L57.3214 35.0322L74.5931 63.986H5.40688L22.6845 35.0322L40.006 6.01219M40.006 0.539062L20.2476 33.6406L0.493164 66.744H79.5048L59.7524 33.6406L40 0.539062H40.006Z" fill="#006DB8"/>
<path d="M54.9088 36.6691L47.5223 48.9213L40.0383 61.339L32.5064 48.9524L25.0622 36.7333L39.9945 36.7021L54.9268 36.6691M59.8544 33.8955L39.9746 33.9364L20.0947 33.9792L30.0735 50.3596L40.0522 66.7381L49.9533 50.3168L59.8544 33.8955Z" fill="#006DB8"/>
</g>
<defs>
<clipPath id="clip0_23_2250">
<rect width="80" height="84" fill="white"/>
</clipPath>
</defs>
</svg>
