<svg width="71" height="47" viewBox="0 0 71 47" fill="none" xmlns="http://www.w3.org/2000/svg">
<path fill-rule="evenodd" clip-rule="evenodd" d="M0.0304484 0.182713C0.388653 0.199161 0.696708 0.225475 0.959989 0.258369C1.53076 0.325156 2.10579 0.356478 2.68116 0.352119C2.90862 0.352119 3.48712 0.33567 4.42025 0.304421C5.82083 0.256724 7.08171 0.233699 8.21184 0.233699L9.91331 0.21561C10.4801 0.228903 11.0458 0.270628 11.6076 0.340605C11.7255 0.464387 11.7865 0.625356 11.7778 0.789613V2.50176L11.7975 2.84222C11.7975 2.87676 11.7975 2.92774 11.7975 2.99353L11.4124 3.00998C11.364 3.00998 11.2584 3.00998 11.0936 2.99353C11.0363 2.88333 10.9593 2.71722 10.8626 2.50012L10.4811 1.90802C10.3137 1.62878 10.1085 1.37015 9.87033 1.13829C9.67271 1.09399 9.47017 1.07081 9.26675 1.06922C9.20407 1.06922 9.01422 1.04948 8.69363 1.02974C8.10796 0.986978 7.47931 0.96724 6.80589 0.96724C6.04112 0.96724 5.35516 0.978757 4.75159 1.00178C4.75159 1.13994 4.75159 1.6827 4.75159 2.6317V4.02312V5.06423C4.8852 5.08059 5.01978 5.08938 5.15457 5.09054C6.27216 5.09054 7.06857 5.07135 7.54379 5.03298C8.01841 4.9935 8.31035 4.94087 8.42318 4.8685C8.55648 4.77506 8.66033 4.65075 8.72407 4.50831C8.85761 4.1079 8.96703 3.70104 9.05183 3.28958L9.17362 3.28136H9.72705C9.75212 3.77477 9.76466 4.14976 9.76466 4.40634C9.76466 4.98857 9.76466 5.36356 9.7557 5.52804C9.74675 5.69251 9.74496 5.82573 9.74496 5.91948C9.74496 6.06915 9.7557 6.30763 9.77541 6.63822C9.79511 6.96881 9.80406 7.21387 9.80406 7.37341V7.55761H9.12885C9.10377 7.47044 9.059 7.28788 8.98735 7.01321C8.86795 6.49897 8.75572 6.1777 8.65064 6.04941C8.55501 5.94013 8.42386 5.86176 8.27632 5.82573C8.15095 5.7879 7.68528 5.76816 6.8847 5.76816C5.93903 5.76816 5.22979 5.79119 4.75159 5.83724V9.55759C4.74244 9.64514 4.76192 9.73321 4.80754 9.81055C4.85316 9.88789 4.92285 9.951 5.0077 9.99179C5.26442 10.1014 6.05426 10.1563 7.37723 10.1563C8.124 10.1694 8.87035 10.1143 9.60526 9.99179C10.0275 9.90745 10.4146 9.71399 10.7211 9.43423C11.1982 8.99316 11.5622 8.45995 11.7867 7.8734C11.9837 7.85531 12.1449 7.84708 12.2649 7.84708C12.3366 7.84708 12.444 7.84708 12.5766 7.85531C12.5569 7.99511 12.5425 8.11188 12.5282 8.20563L12.4745 8.45563L12.127 10.0247L11.9605 10.9737C11.5521 10.9901 11.2315 11 10.9915 11C10.6405 11 9.70317 10.9731 8.1796 10.9194C7.10499 10.8832 5.81426 10.8646 4.30741 10.8635C3.55399 10.8635 2.62863 10.892 1.53133 10.949H1.1373L0 10.9819V10.3964C0.236583 10.3529 0.475829 10.3227 0.716409 10.3059C1.1776 10.2773 1.63185 10.1876 2.06505 10.0395C2.13466 9.84431 2.16678 9.63951 2.15997 9.43423C2.15997 9.3372 2.15997 9.17766 2.15102 8.95069L2.15997 8.69247L2.1349 5.56751L2.14565 4.62673L2.10266 3.2978L2.11341 2.35867L2.02565 1.32743C2.02295 1.27228 2.01637 1.21734 2.00595 1.16296C1.92947 1.09669 1.8312 1.05562 1.72655 1.04619C1.6567 1.03796 1.56356 1.02152 1.44536 0.99849C1.10602 0.934382 0.761641 0.895334 0.415517 0.881717C0.295519 0.881717 0.161193 0.865268 0.00358281 0.848821L0.0429855 0.190935L0.0304484 0.182713ZM13.7228 10.2648C13.9926 10.1976 14.2673 10.1487 14.5449 10.1184C14.9031 10.0724 15.1109 10.0494 15.1718 10.0494C15.3417 10.0618 15.5117 10.0263 15.6589 9.94738C15.6933 9.84045 15.7126 9.72989 15.7162 9.61844L15.6983 8.55102L15.7556 7.4688V6.76157V5.93922L15.7377 5.07081L15.7753 3.21392V2.37347V2.2567C15.7306 1.67118 15.6894 1.35046 15.6482 1.29454C15.607 1.23862 15.4297 1.16132 15.1109 1.0725L14.7527 0.947505C14.615 0.897576 14.473 0.858511 14.3282 0.830731C14.1634 0.803008 14.007 0.742982 13.8697 0.654746C13.8571 0.510011 13.85 0.399815 13.85 0.325803C13.85 0.28304 13.85 0.213964 13.8589 0.126794C13.9135 0.0983794 13.9753 0.0836315 14.038 0.0840295C14.1849 0.0840295 14.7312 0.108699 15.6715 0.159685L17.0165 0.151463L18.0159 0.169558C18.4475 0.169558 19.0028 0.146528 19.6816 0.103765C19.8804 0.0889628 19.995 0.0840295 20.0272 0.0840295C20.0636 0.0807011 20.1003 0.0848839 20.1347 0.0962664C20.1691 0.107649 20.2003 0.125942 20.226 0.149817C20.2863 0.247115 20.3126 0.359079 20.3012 0.470538C20.305 0.521647 20.2978 0.572937 20.28 0.621478C20.2621 0.670018 20.2341 0.714857 20.1974 0.75343C20.0689 0.816692 19.9258 0.851072 19.7801 0.853755L18.6123 1.09389L18.4511 1.15967C18.4296 1.19248 18.4105 1.22654 18.3938 1.26165L18.3849 1.4952L18.3544 2.01986V2.26164C18.3544 2.2896 18.3544 2.44091 18.3419 2.71887C18.3419 2.79288 18.3419 2.8636 18.3419 2.93761C18.3419 3.01162 18.3419 3.1761 18.3419 3.38662C18.3526 3.71556 18.3544 4.01161 18.3544 4.2616C18.3544 4.55107 18.3454 4.88002 18.3257 5.24843C18.3257 5.38823 18.3257 5.56916 18.3257 5.79119L18.2863 9.73851C18.2768 9.79842 18.283 9.85956 18.3045 9.9168C18.326 9.97404 18.3622 10.0257 18.4099 10.0675L19.3054 10.0987H19.8607H20.4535C21.4612 10.0987 22.2523 9.99563 22.8266 9.78949C23.26 9.63653 23.543 9.48028 23.6702 9.32404C23.8722 9.16778 24.0478 8.98487 24.1914 8.78128C24.3792 8.47491 24.5317 8.15133 24.6463 7.81584H24.949C25.1185 7.81718 25.2879 7.82872 25.4558 7.85037V8.08228C25.4558 8.4803 25.3991 9.17875 25.2857 10.1776C25.2737 10.4251 25.2292 10.6703 25.1531 10.9079C25.0644 10.9244 24.9747 10.9359 24.8845 10.9424H24.537H24.0499C23.9925 10.9424 23.6164 10.9194 22.9251 10.8766L21.1251 10.8207C20.0505 10.7895 18.9974 10.7714 17.964 10.7714L16.0565 10.8207C15.3222 10.8372 14.6344 10.8662 13.9933 10.9079H13.8518C13.8124 10.9079 13.7515 10.9079 13.6727 10.8997C13.66 10.8484 13.6534 10.796 13.653 10.7434C13.6436 10.5734 13.666 10.4032 13.7192 10.2401L13.7228 10.2648ZM25.9215 10.9326L25.9501 10.3701C26.7346 10.2829 27.2289 10.1398 27.4438 9.94738C27.5818 9.81745 27.6874 9.47042 27.7609 8.9145L27.8862 5.95402L28.0313 2.9409C28.0438 2.75998 28.0492 2.64814 28.0492 2.61196C28.0492 1.83894 27.9991 1.39158 27.8952 1.27151C27.7913 1.15145 27.3919 1.03303 26.6916 0.916255C26.5125 0.88336 26.3782 0.857045 26.2779 0.834019C26.2654 0.692573 26.2582 0.572512 26.2582 0.477119V0.199161C26.4892 0.182714 26.7597 0.174492 27.0713 0.174492L29.7955 0.258369C29.8599 0.258369 29.9477 0.269884 30.0587 0.276463L30.4868 0.292911C30.6101 0.429894 30.7186 0.577508 30.811 0.733694C31.0414 1.13939 31.3507 1.73259 31.7387 2.51328L31.8372 2.74024L33.3148 5.55435C33.3489 5.62014 33.4008 5.71883 33.4689 5.84382L33.7697 6.4096L34.0885 7.00663C34.1996 7.2188 34.3035 7.41452 34.393 7.5938C34.4859 7.45119 34.5702 7.30405 34.6456 7.15302C34.8963 6.63986 35.1435 6.16618 35.3817 5.74185C35.7948 4.98637 36.3566 3.83069 37.067 2.27479C37.1793 2.02479 37.3655 1.64925 37.6258 1.14816C37.8855 0.644877 38.0306 0.378433 38.0557 0.350472C38.1574 0.296121 38.2754 0.273069 38.3924 0.284685C38.4533 0.284685 38.55 0.284687 38.6807 0.276463C39.0085 0.258371 39.3971 0.2485 39.8539 0.236987C40.5106 0.230408 41.0377 0.213413 41.4353 0.186001C41.8311 0.154751 42.055 0.139949 42.107 0.139949C42.1819 0.140703 42.2567 0.146199 42.3308 0.156397C42.3308 0.236988 42.3308 0.296197 42.3308 0.340605L42.3147 0.593892C42.3147 0.644878 42.3147 0.718891 42.304 0.820863C41.8102 0.876917 41.327 0.994212 40.8676 1.16954C40.6115 1.28138 40.4825 1.41625 40.4825 1.58237V1.70572L40.6401 4.25009C40.658 4.48364 40.707 5.64042 40.787 7.72044C40.8073 8.18534 40.8479 8.77635 40.9088 9.49344C40.9198 9.56209 40.9264 9.6313 40.9285 9.70068C40.9285 9.83061 40.9679 9.91285 41.0288 9.95068C41.0897 9.98851 41.661 10.1431 42.7446 10.4178C42.7446 10.5099 42.7553 10.5822 42.7553 10.6234C42.7553 10.7418 42.7553 10.8618 42.7446 10.9803C42.5744 10.9803 42.1517 10.949 41.4711 10.8865C40.7906 10.824 40.1512 10.7928 39.5547 10.7928C38.6485 10.7928 37.7667 10.8251 36.9094 10.8898L36.5816 10.9128L36.6014 10.3503C36.9294 10.2442 37.2685 10.1692 37.6133 10.1267C37.9088 10.0806 38.0969 10.0066 38.1775 9.90133C38.258 9.79607 38.2957 9.50167 38.2957 9.01812C38.2957 8.83391 38.2957 8.67438 38.2957 8.53622C38.2634 7.95399 38.2473 7.1415 38.2401 6.10533L38.0807 3.16952C38.0646 2.75176 38.0413 2.46229 38.0163 2.30275L35.7058 7.06255C35.6467 7.17275 35.5644 7.33393 35.4551 7.54446C35.31 7.81748 35.2133 8.00169 35.1649 8.10201C34.6903 9.12996 34.3572 9.9112 34.1745 10.4556C34.1226 10.5938 34.0491 10.7763 33.9488 10.9984H33.1698L32.6539 9.72206C32.5059 9.39312 32.251 8.88764 31.8892 8.20563C31.6778 7.81419 31.5113 7.49347 31.3913 7.25005C31.3375 7.14973 31.2945 7.07571 31.2731 7.02473L31.1602 6.81749C31.1558 6.78774 31.1461 6.75886 31.1316 6.73197L29.7381 4.06095L28.8874 2.43597L28.805 6.37178L28.7298 8.92766C28.7298 9.34542 28.8176 9.6464 28.9967 9.82568C29.1758 10.005 29.5555 10.1546 30.1429 10.2846L30.5925 10.3849V10.9984C30.2343 10.9984 29.8402 10.9671 29.4229 10.9243C28.8735 10.8766 28.3217 10.8557 27.7698 10.8618C27.6265 10.8618 27.0104 10.8843 25.9215 10.9293V10.9326ZM43.5631 0.182713C43.9213 0.199161 44.2311 0.225475 44.4944 0.258369C45.0652 0.325156 45.6402 0.356478 46.2156 0.352119C46.443 0.352119 47.0215 0.33567 47.9546 0.304421C49.3552 0.256724 50.6161 0.233699 51.7462 0.233699L53.4477 0.21561C54.0145 0.228903 54.5802 0.270628 55.142 0.340605C55.2632 0.463117 55.3274 0.624229 55.3211 0.789613V2.50176L55.3408 2.84222C55.3408 2.87676 55.3408 2.92774 55.3408 2.99353L54.9558 3.00998C54.9074 3.00998 54.8017 3.00998 54.637 2.99353C54.5796 2.88333 54.5026 2.71722 54.4059 2.50012L54.0244 1.90802C53.8571 1.62878 53.6519 1.37015 53.4137 1.13829C53.2161 1.09399 53.0135 1.07081 52.8101 1.06922C52.7456 1.06922 52.5576 1.04948 52.2352 1.02974C51.6513 0.986978 51.0227 0.96724 50.3492 0.96724C49.5845 0.96724 48.8967 0.978757 48.2949 1.00178C48.2949 1.13994 48.2949 1.6827 48.2949 2.6317V4.02312V5.06423C48.4286 5.08059 48.5631 5.08938 48.6979 5.09054C49.8155 5.09054 50.6119 5.07135 51.0871 5.03298C51.5618 4.9935 51.8537 4.94087 51.9665 4.8685C52.0998 4.77506 52.2037 4.65075 52.2674 4.50831C52.401 4.1079 52.5104 3.70104 52.5952 3.28958L52.717 3.28136H53.2704C53.2955 3.77477 53.308 4.14976 53.308 4.40634C53.308 4.98857 53.308 5.36356 53.2991 5.52804C53.2901 5.69251 53.2883 5.82573 53.2883 5.91948C53.2883 6.06915 53.2991 6.30763 53.317 6.63822C53.3349 6.96881 53.3474 7.21387 53.3474 7.37341V7.55761H52.6722C52.6471 7.47044 52.6024 7.28788 52.5307 7.01321C52.4053 6.49842 52.2943 6.1777 52.194 6.04941C52.0984 5.94013 51.9672 5.86176 51.8197 5.82573C51.6943 5.7879 51.2286 5.76816 50.428 5.76816C49.4824 5.76816 48.7731 5.79119 48.2949 5.83724V9.55759C48.2858 9.64514 48.3053 9.73321 48.3509 9.81055C48.3965 9.88789 48.4662 9.951 48.5511 9.99179C48.8066 10.1014 49.5964 10.1563 50.9206 10.1563C51.6668 10.1695 52.4125 10.1144 53.1468 9.99179C53.5697 9.90783 53.9576 9.71434 54.2644 9.43423C54.7448 8.99398 55.1119 8.4607 55.339 7.8734C55.536 7.85531 55.6972 7.84708 55.8172 7.84708C55.8889 7.84708 55.9963 7.84708 56.1289 7.85531C56.1086 7.99456 56.0925 8.11133 56.0805 8.20563L56.0268 8.45563L55.6793 10.0247L55.5128 10.9737C55.1044 10.9901 54.7838 11 54.5438 11C54.1928 11 53.2555 10.9731 51.7319 10.9194C50.6573 10.8832 49.3666 10.8646 47.8597 10.8635C47.1063 10.8635 46.1809 10.892 45.0836 10.949H44.6878L43.5523 10.9819V10.3964C43.7889 10.3529 44.0281 10.3227 44.2687 10.3059C44.7299 10.2773 45.1842 10.1876 45.6174 10.0395C45.6862 9.84414 45.7183 9.63947 45.7123 9.43423C45.7123 9.3372 45.7123 9.17766 45.7033 8.95069L45.7123 8.69247L45.6872 5.56751L45.6962 4.62673L45.655 3.2978L45.6657 2.35867L45.578 1.32743C45.5753 1.27228 45.5687 1.21734 45.5583 1.16296C45.4818 1.09669 45.3835 1.05562 45.2789 1.04619C45.209 1.03796 45.1159 1.02152 44.9977 0.99849C44.6577 0.934281 44.3128 0.895232 43.966 0.881717C43.8478 0.881717 43.7135 0.865268 43.5559 0.848821L43.5935 0.190935L43.5631 0.182713ZM57.2877 10.2632C57.3826 10.2434 57.5796 10.2089 57.8751 10.1661C58.4644 10.079 58.8494 9.9589 59.0339 9.80758C59.1717 9.65541 59.2482 9.46434 59.2506 9.26647C59.2506 9.20069 59.2775 8.35201 59.3097 6.72539L59.29 5.81093L59.3097 4.70239L59.29 1.86032V1.53138C59.2937 1.47113 59.2839 1.41083 59.2611 1.35423C59.2383 1.29764 59.203 1.24596 59.1575 1.20244C59.0426 1.14896 58.9128 1.12834 58.785 1.14323C58.5947 1.1457 58.4048 1.16165 58.2172 1.19092C57.9658 1.19889 57.7152 1.22086 57.4668 1.25671C57.4274 1.25671 57.3701 1.26823 57.2877 1.27974V0.546194C57.8094 0.413634 58.3401 0.313086 58.8763 0.245213C60.2725 0.0679652 61.6812 -0.0134016 63.0906 0.00179372C64.484 0.00179372 65.5025 0.0708734 66.1461 0.209029C67.0062 0.376683 67.8196 0.705334 68.5353 1.17448C69.3086 1.69089 69.9413 2.36473 70.3836 3.1432C70.7973 3.90554 71.0085 4.74704 70.9997 5.59876C70.9997 6.72045 70.7239 7.68097 70.1723 8.4803C69.5836 9.31078 68.7586 9.97741 67.7866 10.4079C67.0577 10.7517 66.0726 10.9243 64.8243 10.9243L62.8936 10.8618L62.3294 10.8421L61.5646 10.8569L61.3408 10.8421L60.5473 10.8569H59.505C59.4656 10.8569 59.1468 10.8734 58.545 10.9046C58.3426 10.9161 58.0793 10.9211 57.7551 10.9276C57.5527 10.9276 57.3969 10.9276 57.302 10.9276C57.2895 10.8059 57.2841 10.5839 57.2841 10.2582L57.2877 10.2632ZM61.8512 0.988623V2.77149L61.8709 4.00503V5.05271L61.8512 5.84382L61.8798 7.16782L61.8512 7.98195C61.8512 8.74346 62.0124 9.2599 62.3294 9.53292C62.7951 9.92272 63.4345 10.1151 64.2494 10.1151C64.713 10.1334 65.1766 10.0778 65.6195 9.95068C66.1721 9.77837 66.6736 9.49068 67.0846 9.11022C67.4866 8.68641 67.7684 8.17792 67.9049 7.62998C68.0954 6.98286 68.1906 6.31518 68.1878 5.64481C68.1878 4.5264 67.9855 3.60865 67.5807 2.89978C67.2146 2.22561 66.6369 1.66764 65.9222 1.29783C64.6606 0.712472 63.2003 0.601558 61.8512 0.988623Z" fill="#006DB8"/>
<path d="M35 44.5704L19.2077 18.25H50.7923L35 44.5704Z" fill="white" stroke="#006DB8" stroke-width="2.5"/>
</svg>
