<svg width="16" height="15" viewBox="0 0 16 15" fill="none" xmlns="http://www.w3.org/2000/svg">
<g clip-path="url(#clip0_1_2475)">
<path d="M13.9037 10.5751V12.4501C13.9044 12.6241 13.8688 12.7964 13.799 12.9559C13.7293 13.1154 13.627 13.2586 13.4988 13.3762C13.3705 13.4939 13.2191 13.5835 13.0542 13.6393C12.8893 13.695 12.7146 13.7157 12.5412 13.7001C10.618 13.4911 8.77058 12.8339 7.14746 11.7813C5.63735 10.8217 4.35704 9.54142 3.39746 8.03131C2.34119 6.40081 1.68386 4.54443 1.47871 2.61256C1.46309 2.43973 1.48363 2.26554 1.53902 2.10108C1.59441 1.93662 1.68344 1.78549 1.80043 1.65732C1.91743 1.52916 2.05983 1.42675 2.21858 1.35664C2.37732 1.28652 2.54892 1.25022 2.72246 1.25006H4.59746C4.90077 1.24708 5.19483 1.35448 5.42481 1.55227C5.65479 1.75005 5.805 2.02471 5.84746 2.32506C5.92659 2.9251 6.07336 3.51427 6.28496 4.08131C6.36905 4.30501 6.38724 4.54813 6.3374 4.78186C6.28755 5.01559 6.17175 5.23013 6.00371 5.40006L5.20996 6.19381C6.09968 7.75853 7.39524 9.05409 8.95996 9.94381L9.75371 9.15006C9.92364 8.98202 10.1382 8.86622 10.3719 8.81637C10.6056 8.76652 10.8488 8.78472 11.0725 8.86881C11.6395 9.0804 12.2287 9.22717 12.8287 9.30631C13.1323 9.34914 13.4096 9.50206 13.6078 9.736C13.806 9.96993 13.9113 10.2685 13.9037 10.5751Z" stroke="#006DB8" stroke-linecap="round" stroke-linejoin="round"/>
</g>
<defs>
<clipPath id="clip0_1_2475">
<rect width="15" height="15" fill="white" transform="translate(0.15332)"/>
</clipPath>
</defs>
</svg>
