<svg width="24" height="24" viewBox="0 0 24 24" fill="none" xmlns="http://www.w3.org/2000/svg">
<path d="M12.1303 18C15.2551 18 14.1409 16.2416 14.3821 15.736C14.3785 15.3584 14.3749 14.9952 14.3893 14.7744C14.5873 14.824 15.0544 15.0344 16.0192 15.868C17.5087 17.204 17.8894 18 19.0927 18H21.3075C22.0095 18 22.3749 17.7416 22.5576 17.5248C22.734 17.3152 22.9068 16.9472 22.7178 16.3744C22.2237 14.9952 19.342 12.6136 19.1629 12.3624C19.1899 12.316 19.2331 12.2544 19.2556 12.2224C19.8243 11.5544 21.9933 8.6632 22.3128 7.5064C22.3137 7.5048 22.3146 7.5024 22.3146 7.5C22.4874 6.972 22.329 6.6296 22.1652 6.436C21.9186 6.1464 21.5262 6 20.9961 6H18.7813C18.0397 6 17.4772 6.332 17.1928 6.9376C16.7167 8.0136 15.3793 10.2264 14.3767 11.0096C14.3461 9.9 14.3668 9.0528 14.383 8.4232C14.4154 7.1952 14.5198 6 13.0861 6H9.60496C8.70677 6 7.84728 6.872 8.77787 7.9072C9.59146 8.8144 9.07036 9.32 9.24586 11.8368C8.56187 11.1848 7.34508 9.424 6.48469 7.1736C6.2435 6.5648 5.8781 6.0008 4.84941 6.0008H2.63454C1.73635 6.0008 1.19995 6.436 1.19995 7.1648C1.19995 8.8016 5.27601 18 12.1303 18ZM4.84941 7.2008C5.04471 7.2008 5.06451 7.2008 5.20941 7.5664C6.0905 9.8728 8.06688 13.2856 9.51046 13.2856C10.5949 13.2856 10.5949 12.2976 10.5949 11.9256L10.594 8.964C10.5346 7.984 10.1333 7.496 9.86956 7.2L13.0267 7.2032C13.0285 7.2168 13.0087 10.4792 13.0357 11.2696C13.0357 12.392 14.0383 13.0352 15.6034 11.6272C17.2549 9.9704 18.397 7.4936 18.4429 7.3928C18.5104 7.2488 18.5689 7.2 18.7813 7.2H21.0051C21.0042 7.2024 21.0042 7.2048 21.0033 7.2072C20.8008 8.0472 18.802 10.724 18.1333 11.5552C18.1225 11.568 18.1126 11.5816 18.1027 11.5952C17.8084 12.0224 17.569 12.4944 18.1432 13.1584C18.1954 13.2144 18.3322 13.3456 18.5302 13.528C19.1458 14.0928 21.2571 16.024 21.4443 16.792C21.3201 16.8096 21.1851 16.7968 19.0927 16.8008C18.6472 16.8008 18.2989 16.2088 16.9696 15.0168C15.7744 13.9832 14.9986 13.5608 14.2921 13.5608C12.9205 13.5608 13.0204 14.5504 13.033 15.7472C13.0375 17.0448 13.0285 16.6344 13.0384 16.716C12.9583 16.744 12.7288 16.8 12.1303 16.8C6.41989 16.8 2.70113 8.7432 2.55804 7.2032C2.60754 7.1992 3.28883 7.2016 4.84941 7.2008Z" fill="#006DB8"/>
</svg>
