<svg width="24" height="24" viewBox="0 0 24 24" fill="none" xmlns="http://www.w3.org/2000/svg">
<path d="M15.3244 11.0079L10.5525 8.32665C10.2781 8.17248 9.95379 8.17824 9.68484 8.34188C9.41573 8.50569 9.25523 8.79506 9.25523 9.11625V14.4326C9.25523 14.7523 9.41475 15.0412 9.68204 15.2051C9.82162 15.2908 9.97636 15.3338 10.1314 15.3338C10.2735 15.3338 10.4159 15.2977 10.5469 15.2253L15.319 12.5903C15.6023 12.4337 15.7791 12.1313 15.7804 11.8008C15.7815 11.4703 15.6069 11.1666 15.3244 11.0079ZM10.521 13.7639V9.79045L14.0875 11.7944L10.521 13.7639Z" fill="#006DB8"/>
<path d="M22.6409 7.56521L22.6399 7.55506C22.6216 7.37653 22.4395 5.78852 21.6878 4.98081C20.8188 4.03078 19.8337 3.91536 19.3599 3.86003C19.3207 3.85546 19.2847 3.85123 19.2526 3.84683L19.2149 3.84277C16.3593 3.62954 12.0468 3.60044 12.0037 3.60027L11.9999 3.6001L11.9961 3.60027C11.9529 3.60044 7.64042 3.62954 4.75917 3.84277L4.7211 3.84683C4.69045 3.85106 4.65666 3.85495 4.61991 3.85935C4.15157 3.91486 3.17698 4.03044 2.30555 5.01482C1.58952 5.8139 1.38254 7.3679 1.36128 7.54254L1.35881 7.56521C1.35239 7.6395 1.19995 9.40808 1.19995 11.1836V12.8433C1.19995 14.6189 1.35239 16.3874 1.35881 16.4619L1.35997 16.4731C1.37826 16.6487 1.56019 18.2076 2.30852 19.0157C3.12557 19.9339 4.15866 20.0554 4.71434 20.1207C4.80218 20.131 4.87782 20.1398 4.9294 20.1491L4.97933 20.1562C6.62809 20.3173 11.7975 20.3967 12.0167 20.3999L12.0233 20.4001L12.0299 20.3999C12.073 20.3998 16.3854 20.3707 19.2409 20.1574L19.2786 20.1534C19.3147 20.1485 19.3553 20.1441 19.3998 20.1393C19.8655 20.0886 20.8348 19.9831 21.6942 19.0121C22.4102 18.2129 22.6174 16.6589 22.6385 16.4844L22.6409 16.4617C22.6474 16.3873 22.8 14.6189 22.8 12.8433V11.1836C22.7998 9.40808 22.6474 7.63967 22.6409 7.56521ZM21.534 12.8433C21.534 14.4867 21.3943 16.1791 21.3811 16.3345C21.3274 16.7624 21.109 17.7456 20.7601 18.135C20.2222 18.7427 19.6697 18.8029 19.2663 18.8468C19.2175 18.852 19.1723 18.8571 19.1315 18.8623C16.3695 19.0674 12.2199 19.0989 12.0287 19.1001C11.8143 19.0969 6.72054 19.0169 5.12204 18.8644C5.04014 18.8507 4.95164 18.8402 4.85837 18.8293C4.38525 18.7737 3.73761 18.6975 3.2396 18.135L3.2279 18.1222C2.88513 17.7554 2.67304 16.836 2.61915 16.3395C2.6091 16.2221 2.46573 14.5097 2.46573 12.8433V11.1836C2.46573 9.5421 2.60515 7.85154 2.61866 7.69298C2.68276 7.18886 2.90524 6.26522 3.2396 5.89191C3.79397 5.26578 4.37849 5.1964 4.7651 5.15054C4.80201 5.14614 4.83645 5.14208 4.86826 5.13785C7.67041 4.93173 11.8499 4.9011 11.9999 4.89992C12.1498 4.90093 16.3278 4.93173 19.1051 5.13785C19.1392 5.14225 19.1765 5.14665 19.2165 5.15138C19.6142 5.19792 20.2152 5.26832 20.7667 5.87245L20.7718 5.87804C21.1146 6.24475 21.3267 7.18023 21.3806 7.68672C21.3901 7.79756 21.534 9.51367 21.534 11.1836V12.8433Z" fill="#006DB8"/>
</svg>
