<svg width="95" height="94" viewBox="0 0 95 94" fill="none" xmlns="http://www.w3.org/2000/svg">
<g filter="url(#filter0_b_37_3948)">
<circle cx="47.5003" cy="47" r="35.72" fill="white" fill-opacity="0.6"/>
</g>
<circle cx="47.5002" cy="46.9999" r="42.05" stroke="#A6D1EE" stroke-width="0.5"/>
<path d="M55.6274 64.0496C53.2068 66.4537 52.4465 68.9039 52.3689 69.8286H33.0508C34.4473 67.2587 36.961 61.1099 35.8438 57.0742M55.6274 64.0496L61.4461 66.1301C62.765 66.5153 65.4493 66.6848 65.6355 64.2808C65.7131 63.8185 65.7752 62.7552 65.4028 62.2004C65.219 61.9266 65.2166 61.5666 65.2893 61.2258C65.4185 60.62 65.9184 60.1906 66.457 59.8849L66.6261 59.789C66.976 59.5904 67.0931 59.1423 66.885 58.798V58.798C66.702 58.495 66.7684 58.1037 67.0411 57.878L67.2866 57.6748C67.6735 57.3545 67.7627 56.7971 67.5261 56.354C67.1959 55.7358 66.7993 54.8809 66.7993 54.3411C66.7993 53.4165 70.7591 52.6399 70.2905 51.336C69.8559 50.127 66.0065 45.8742 65.6513 43.8972C65.6033 43.6303 65.7627 43.3892 65.9769 43.2227C67.2856 42.2056 67.2636 41.6483 67.2648 40.934C67.265 40.7858 67.2136 40.5751 67.1304 40.3314C66.5087 38.5098 65.8793 36.6666 65.2312 34.8541C64.0542 31.562 61.1054 27.4864 54.9291 26.3711C46.7364 24.8917 40.8022 26.2589 39.3282 26.8753M55.6274 64.0496C48.738 62.0155 47.9467 59.8118 48.4122 58.9642M38.5104 46.2506L37.473 43.2456H31.4216L32.3181 46.2506M38.5104 46.2506L40.266 51.336H35.8438L36.542 57.8084L35.8438 57.0742M38.5104 46.2506H48.6449C48.6449 46.2506 52.8344 45.7883 52.8344 41.1652C52.8344 36.542 47.7139 36.0797 47.7139 36.0797C47.7139 36.0797 50.7396 32.15 47.7139 29.3762C44.6882 26.6023 41.4297 29.3762 41.4297 29.3762C41.4297 29.3762 38.1713 22.9876 31.8871 26.6442C25.6029 30.3008 29.3268 36.0797 29.3268 36.0797C29.3268 36.0797 24.6719 37.2355 24.6719 41.1652C24.6719 45.0948 28.8613 46.2506 28.8613 46.2506H32.3181M32.3181 46.2506L33.2836 49.4868H28.6286L35.8438 57.0742M33.5163 37.2355C33.4387 35.8485 34.168 33.0284 37.7058 32.8435M41.8952 37.6978C42.7486 37.6978 44.4555 38.2063 44.4555 40.2405M41.197 59.8888C41.197 59.8888 38.6368 61.9692 38.6368 63.8185C38.6368 65.6678 39.8005 66.5924 41.197 66.5924C42.5935 66.5924 43.7572 65.6678 43.7572 63.8185C43.7572 61.9692 41.197 59.8888 41.197 59.8888ZM45.8519 55.4969C44.4555 55.4969 43.2917 54.5722 43.2917 52.723C43.2917 50.8737 45.8519 48.7933 45.8519 48.7933C45.8519 48.7933 48.4122 50.8737 48.4122 52.723C48.4122 54.5722 47.2484 55.4969 45.8519 55.4969ZM29.5596 64.2808C28.1631 64.2808 26.9994 63.3562 26.9994 61.5069C26.9994 59.6577 29.5596 57.5773 29.5596 57.5773C29.5596 57.5773 32.1198 59.6577 32.1198 61.5069C32.1198 63.3562 30.9561 64.2808 29.5596 64.2808Z" stroke="#006DB8" stroke-linecap="round" stroke-linejoin="round"/>
<circle cx="73.3504" cy="13.7643" r="1.67857" fill="#A6D1EE"/>
<circle cx="46.4928" cy="88.8841" r="1.67857" fill="#A6D1EE"/>
<circle cx="6.65318" cy="56.7357" r="1.67857" fill="#A6D1EE"/>
<defs>
<filter id="filter0_b_37_3948" x="-34.2197" y="-34.72" width="163.44" height="163.44" filterUnits="userSpaceOnUse" color-interpolation-filters="sRGB">
<feFlood flood-opacity="0" result="BackgroundImageFix"/>
<feGaussianBlur in="BackgroundImageFix" stdDeviation="23"/>
<feComposite in2="SourceAlpha" operator="in" result="effect1_backgroundBlur_37_3948"/>
<feBlend mode="normal" in="SourceGraphic" in2="effect1_backgroundBlur_37_3948" result="shape"/>
</filter>
</defs>
</svg>
