<svg width="94" height="94" viewBox="0 0 94 94" fill="none" xmlns="http://www.w3.org/2000/svg">
<g filter="url(#filter0_b_37_3957)">
<circle cx="47.0003" cy="46.9999" r="35.72" fill="white" fill-opacity="0.6"/>
</g>
<circle cx="46.9999" cy="46.9999" r="42.05" stroke="#A6D1EE" stroke-width="0.5"/>
<path d="M62.7307 58.2878C65.5381 61.9677 66.1378 66.6458 66.0598 68.4858H62.0826C62.0826 68.4858 62.0826 64.5759 56.9357 62.9659C51.7887 61.356 51.7887 58.5961 51.7887 58.5961V57.2743M55.064 56.5262C53.8943 57.1395 50.8061 57.9521 47.8115 56.2962C47.8115 56.2962 44.0683 60.666 39.1553 57.6761C37.6235 56.7439 36.8422 55.4987 36.4923 54.2262M37.0498 48.4764C37.0498 48.4764 36.5605 49.5586 36.3479 51.037M32.3707 47.3265C32.1368 48.5735 32.6047 51.0616 36.3479 51.037M36.3479 51.037C36.21 51.9958 36.1885 53.1213 36.4923 54.2262M53.4264 50.5464C53.4264 50.5464 55.7659 53.7663 58.3394 51.9263M59.2752 47.7864C59.2752 47.7864 60.9129 50.0863 58.3394 51.9263M58.3394 51.9263C58.3394 51.9263 63.9542 55.6061 67.9314 51.9263M36.4923 54.2262C36.4923 54.2262 30.967 56.9861 26.288 51.4663C21.6089 45.9465 26.1495 41.1167 26.1495 41.1167M33.5706 37.2068C32.8815 35.8437 31.4507 34.9069 29.7972 34.9069C29.6391 34.9069 29.4829 34.9154 29.3293 34.9321M28.4097 42.9566C26.7656 42.3928 25.5861 40.8552 25.5861 39.0467C25.5861 36.9158 27.2238 35.161 29.3293 34.9321M29.3293 34.9321C29.3293 34.9321 28.8614 32.377 31.4349 30.767C34.0084 29.1571 36.2768 30.6491 36.2768 30.6491M35.646 32.837C35.646 32.837 35.88 28.4671 40.559 27.3171C45.238 26.1672 47.6857 28.6971 47.6857 28.6971M47.1097 31.227C47.1097 31.227 46.8757 26.8572 51.0868 26.8572C53.4149 26.8572 54.3844 28.1927 54.786 29.3871M55.064 31.227C55.064 31.227 55.1108 30.3532 54.786 29.3871M54.786 29.3871C54.786 29.3871 58.3393 28.6971 61.8486 31.457C65.3579 34.2169 64.89 37.2068 64.89 37.2068V37.8681M62.5505 38.5868C62.5505 38.5868 63.6032 38.0118 64.89 37.8681M66.5276 45.2566C66.5276 45.2566 67.6284 44.6837 68.3993 43.6383M64.89 37.8681C66.1767 37.7243 67.6974 38.0118 68.6332 39.7367C69.5202 41.3717 69.0936 42.6966 68.3993 43.6383M68.3993 43.6383C68.3993 43.6383 71.9085 48.2465 67.9314 51.9263M67.9314 51.9263C67.6194 53.738 65.6386 57.7462 60.2109 59.2861M47.8115 33.7569V41.5766H51.7887L44.0683 52.3863V44.7965H40.0911L47.8115 33.7569Z" stroke="#006DB8" stroke-linecap="round" stroke-linejoin="round"/>
<circle cx="84.6444" cy="28.5357" r="1.67857" fill="#A6D1EE"/>
<circle cx="5.26646" cy="43.5824" r="1.67857" fill="#A6D1EE"/>
<circle cx="37.536" cy="87.88" r="1.67857" fill="#A6D1EE"/>
<defs>
<filter id="filter0_b_37_3957" x="-34.7197" y="-34.7201" width="163.44" height="163.44" filterUnits="userSpaceOnUse" color-interpolation-filters="sRGB">
<feFlood flood-opacity="0" result="BackgroundImageFix"/>
<feGaussianBlur in="BackgroundImageFix" stdDeviation="23"/>
<feComposite in2="SourceAlpha" operator="in" result="effect1_backgroundBlur_37_3957"/>
<feBlend mode="normal" in="SourceGraphic" in2="effect1_backgroundBlur_37_3957" result="shape"/>
</filter>
</defs>
</svg>
